<mxfile host="Electron" agent="Mozilla/5.0 (Macintosh; Intel Mac OS X 10_15_7) AppleWebKit/537.36 (KHTML, like Gecko) draw.io/26.0.4 Chrome/128.0.6613.186 Electron/32.2.5 Safari/537.36" version="26.0.4">
  <diagram name="Page-1" id="imMY9ehtsJV6iTXpsg2I">
    <mxGraphModel dx="1434" dy="907" grid="1" gridSize="10" guides="1" tooltips="1" connect="1" arrows="1" fold="1" page="1" pageScale="1" pageWidth="827" pageHeight="1169" math="0" shadow="0">
      <root>
        <mxCell id="0" />
        <mxCell id="1" parent="0" />
        <mxCell id="b351K_z5OahY61B9f_4o-3" value="" style="edgeStyle=orthogonalEdgeStyle;rounded=0;orthogonalLoop=1;jettySize=auto;html=1;" edge="1" parent="1" source="b351K_z5OahY61B9f_4o-1" target="b351K_z5OahY61B9f_4o-2">
          <mxGeometry relative="1" as="geometry" />
        </mxCell>
        <mxCell id="b351K_z5OahY61B9f_4o-1" value="start" style="ellipse;whiteSpace=wrap;html=1;" vertex="1" parent="1">
          <mxGeometry x="354" y="180" width="120" height="80" as="geometry" />
        </mxCell>
        <mxCell id="b351K_z5OahY61B9f_4o-7" value="" style="edgeStyle=orthogonalEdgeStyle;rounded=0;orthogonalLoop=1;jettySize=auto;html=1;" edge="1" parent="1" source="b351K_z5OahY61B9f_4o-2" target="b351K_z5OahY61B9f_4o-6">
          <mxGeometry relative="1" as="geometry" />
        </mxCell>
        <mxCell id="b351K_z5OahY61B9f_4o-2" value="&quot;aku suka Hari Senin&quot;" style="whiteSpace=wrap;html=1;" vertex="1" parent="1">
          <mxGeometry x="346" y="300" width="136" height="60" as="geometry" />
        </mxCell>
        <mxCell id="b351K_z5OahY61B9f_4o-9" value="" style="edgeStyle=orthogonalEdgeStyle;rounded=0;orthogonalLoop=1;jettySize=auto;html=1;" edge="1" parent="1" source="b351K_z5OahY61B9f_4o-6" target="b351K_z5OahY61B9f_4o-8">
          <mxGeometry relative="1" as="geometry" />
        </mxCell>
        <mxCell id="b351K_z5OahY61B9f_4o-6" value="&quot;aku suka hari senin&quot;" style="whiteSpace=wrap;html=1;" vertex="1" parent="1">
          <mxGeometry x="346" y="400" width="136" height="60" as="geometry" />
        </mxCell>
        <mxCell id="b351K_z5OahY61B9f_4o-13" value="" style="edgeStyle=orthogonalEdgeStyle;rounded=0;orthogonalLoop=1;jettySize=auto;html=1;" edge="1" parent="1" source="b351K_z5OahY61B9f_4o-8" target="b351K_z5OahY61B9f_4o-12">
          <mxGeometry relative="1" as="geometry" />
        </mxCell>
        <mxCell id="b351K_z5OahY61B9f_4o-8" value="[&quot;aku&quot;,&quot;suka&quot;,&quot;hari&quot;, &quot;senin&quot;]" style="whiteSpace=wrap;html=1;" vertex="1" parent="1">
          <mxGeometry x="302" y="500" width="223" height="60" as="geometry" />
        </mxCell>
        <mxCell id="b351K_z5OahY61B9f_4o-12" value="[&quot;aku&quot;,&quot;suka&quot;,&quot;hari&quot;, &quot;senin&quot;]&lt;div&gt;1, 5, 4, 5&lt;/div&gt;" style="whiteSpace=wrap;html=1;" vertex="1" parent="1">
          <mxGeometry x="285" y="610" width="258" height="80" as="geometry" />
        </mxCell>
        <mxCell id="b351K_z5OahY61B9f_4o-16" style="edgeStyle=orthogonalEdgeStyle;rounded=0;orthogonalLoop=1;jettySize=auto;html=1;entryX=1;entryY=0.5;entryDx=0;entryDy=0;" edge="1" parent="1" source="b351K_z5OahY61B9f_4o-15" target="b351K_z5OahY61B9f_4o-12">
          <mxGeometry relative="1" as="geometry" />
        </mxCell>
        <mxCell id="b351K_z5OahY61B9f_4o-15" value="bobot kosa kata dalam kamus atau lexcion" style="rounded=0;whiteSpace=wrap;html=1;dashed=1;" vertex="1" parent="1">
          <mxGeometry x="660" y="610" width="140" height="80" as="geometry" />
        </mxCell>
      </root>
    </mxGraphModel>
  </diagram>
</mxfile>
